<svg width="62" height="71" viewBox="0 0 62 71" fill="none" xmlns="http://www.w3.org/2000/svg">
<path fill-rule="evenodd" clip-rule="evenodd" d="M49.8057 41.2907C48.322 41.2102 46.5577 41.1144 44.724 40.1272C40.9142 38.076 31.8154 30.3453 27.091 26.3313C25.4787 24.9614 24.3759 24.0244 24.1665 23.8936C23.9005 23.7275 23.6202 23.4954 23.2929 23.2245C22.6081 22.6575 21.7177 21.9203 20.3215 21.2601C17.2663 19.7589 14.9487 19.2387 11.5656 19.2948V9.70405L3 2L39.6988 2.31445V9.70405H18.1429L45.9803 32.8162V2.31445H51.7668V41.5029C51.1978 41.3663 50.5357 41.3303 49.8057 41.2907ZM10.69 27.5491V70H39.6608V63.5538H16.6669V36.0786L46.2087 60.6844V70H59L51.843 63.5538V50.1896C46.0054 50.6633 42.5057 49.0874 35.8919 43.2324C35.8919 43.2324 22.9864 32.1087 19.9789 30.3792C16.9714 28.6497 13.3375 27.544 10.69 27.5491Z" fill="#777777"/>
<path d="M44.724 40.1272L44.2499 41.0077L44.2499 41.0077L44.724 40.1272ZM49.8057 41.2907L49.7515 42.2892L49.7515 42.2892L49.8057 41.2907ZM27.091 26.3313L27.7385 25.5692L27.7385 25.5692L27.091 26.3313ZM24.1665 23.8936L24.6962 23.0455L24.6962 23.0455L24.1665 23.8936ZM23.2929 23.2245L22.6552 23.9947L22.6552 23.9947L23.2929 23.2245ZM20.3215 21.2601L19.8806 22.1576L19.8873 22.1609L19.8941 22.1641L20.3215 21.2601ZM11.5656 19.2948H10.5656V20.3115L11.5822 20.2947L11.5656 19.2948ZM11.5656 9.70405H12.5656V9.25849L12.2343 8.96054L11.5656 9.70405ZM3 2L3.00857 1.00004L0.367668 0.977408L2.33127 2.74351L3 2ZM39.6988 2.31445H40.6988V1.32298L39.7074 1.31449L39.6988 2.31445ZM39.6988 9.70405V10.704H40.6988V9.70405H39.6988ZM18.1429 9.70405V8.70405H15.3729L17.5041 10.4734L18.1429 9.70405ZM45.9803 32.8162L45.3415 33.5856L46.9803 34.9462V32.8162H45.9803ZM45.9803 2.31445V1.31445H44.9803V2.31445H45.9803ZM51.7668 2.31445H52.7668V1.31445H51.7668V2.31445ZM51.7668 41.5029L51.5333 42.4753L52.7668 42.7714V41.5029H51.7668ZM10.69 70H9.69002V71H10.69V70ZM10.69 27.5491L10.6881 26.5491L9.69002 26.5511V27.5491H10.69ZM39.6608 70V71H40.6608V70H39.6608ZM39.6608 63.5538H40.6608V62.5538H39.6608V63.5538ZM16.6669 63.5538H15.6669V64.5538H16.6669V63.5538ZM16.6669 36.0786L17.3069 35.3102L15.6669 33.9443V36.0786H16.6669ZM46.2087 60.6844H47.2087V60.2159L46.8487 59.916L46.2087 60.6844ZM46.2087 70H45.2087V71H46.2087V70ZM59 70V71H61.6045L59.6692 69.257L59 70ZM51.843 63.5538H50.843V63.9989L51.1737 64.2968L51.843 63.5538ZM51.843 50.1896H52.843V49.1052L51.7621 49.1929L51.843 50.1896ZM35.8919 43.2324L36.5548 42.4835L36.5448 42.4749L35.8919 43.2324ZM19.9789 30.3792L19.4804 31.2461L19.4804 31.2461L19.9789 30.3792ZM44.2499 41.0077C46.301 42.1119 48.2723 42.2089 49.7515 42.2892L49.8599 40.2922C48.3717 40.2114 46.8143 40.1168 45.198 39.2467L44.2499 41.0077ZM26.4435 27.0933C28.8045 29.0993 32.27 32.0438 35.6233 34.7442C38.949 37.4223 42.2489 39.9304 44.2499 41.0077L45.198 39.2467C43.3892 38.2728 40.2349 35.89 36.8777 33.1865C33.548 30.5052 30.102 27.5773 27.7385 25.5692L26.4435 27.0933ZM23.6369 24.7418C23.6271 24.7357 23.6845 24.7759 23.8567 24.915C24.0077 25.0369 24.2101 25.2045 24.4604 25.4143C24.9606 25.8334 25.6363 26.4075 26.4435 27.0933L27.7385 25.5692C26.9335 24.8852 26.2516 24.3059 25.7449 23.8813C25.4919 23.6692 25.2785 23.4925 25.1134 23.3591C24.9696 23.2429 24.8107 23.1169 24.6962 23.0455L23.6369 24.7418ZM22.6552 23.9947C22.9662 24.2522 23.3022 24.5328 23.6369 24.7418L24.6962 23.0455C24.4988 22.9221 24.2742 22.7386 23.9306 22.4542L22.6552 23.9947ZM19.8941 22.1641C21.1709 22.7679 21.9814 23.4369 22.6552 23.9947L23.9306 22.4542C23.2349 21.8782 22.2645 21.0727 20.749 20.3561L19.8941 22.1641ZM11.5822 20.2947C14.8058 20.2412 16.9667 20.7259 19.8806 22.1576L20.7625 20.3626C17.5659 18.7919 15.0916 18.2362 11.549 18.2949L11.5822 20.2947ZM10.5656 9.70405V19.2948H12.5656V9.70405H10.5656ZM2.33127 2.74351L10.8969 10.4476L12.2343 8.96054L3.66873 1.25649L2.33127 2.74351ZM39.7074 1.31449L3.00857 1.00004L2.99143 2.99996L39.6903 3.31441L39.7074 1.31449ZM40.6988 9.70405V2.31445H38.6988V9.70405H40.6988ZM18.1429 10.704H39.6988V8.70405H18.1429V10.704ZM46.6191 32.0468L18.7816 8.93466L17.5041 10.4734L45.3415 33.5856L46.6191 32.0468ZM44.9803 2.31445V32.8162H46.9803V2.31445H44.9803ZM51.7668 1.31445H45.9803V3.31445H51.7668V1.31445ZM52.7668 41.5029V2.31445H50.7668V41.5029H52.7668ZM49.7515 42.2892C50.5076 42.3303 51.0707 42.3642 51.5333 42.4753L52.0003 40.5305C51.3249 40.3684 50.5639 40.3304 49.8599 40.2922L49.7515 42.2892ZM11.69 70V27.5491H9.69002V70H11.69ZM39.6608 69H10.69V71H39.6608V69ZM38.6608 63.5538V70H40.6608V63.5538H38.6608ZM16.6669 64.5538H39.6608V62.5538H16.6669V64.5538ZM15.6669 36.0786V63.5538H17.6669V36.0786H15.6669ZM46.8487 59.916L17.3069 35.3102L16.0269 36.847L45.5687 61.4528L46.8487 59.916ZM47.2087 70V60.6844H45.2087V70H47.2087ZM59 69H46.2087V71H59V69ZM51.1737 64.2968L58.3308 70.743L59.6692 69.257L52.5122 62.8107L51.1737 64.2968ZM50.843 50.1896V63.5538H52.843V50.1896H50.843ZM35.2291 43.9811C38.5537 46.9243 41.1773 48.8684 43.7568 50C46.3745 51.1484 48.8824 51.4331 51.9238 51.1863L51.7621 49.1929C48.966 49.4198 46.8052 49.1534 44.5603 48.1685C42.277 47.1668 39.8439 45.3954 36.5548 42.4836L35.2291 43.9811ZM19.4804 31.2461C20.1577 31.6356 21.4702 32.6069 23.1154 33.9027C24.738 35.1808 26.6254 36.7269 28.4236 38.2231C30.221 39.7185 31.9252 41.1604 33.1803 42.2287C33.8077 42.7628 34.3227 43.2033 34.6807 43.5102C34.8597 43.6637 34.9994 43.7837 35.0943 43.8653C35.1418 43.9061 35.178 43.9373 35.2024 43.9583C35.2146 43.9687 35.2238 43.9767 35.2299 43.982C35.233 43.9846 35.2353 43.9866 35.2368 43.9879C35.2376 43.9886 35.2381 43.989 35.2385 43.9894C35.2387 43.9895 35.2388 43.9896 35.2389 43.9897C35.239 43.9898 35.239 43.9898 35.8919 43.2324C36.5448 42.4749 36.5447 42.4748 36.5446 42.4747C36.5445 42.4747 36.5444 42.4745 36.5442 42.4743C36.5437 42.474 36.5431 42.4735 36.5423 42.4728C36.5407 42.4714 36.5383 42.4693 36.5352 42.4666C36.5289 42.4612 36.5196 42.4532 36.5072 42.4425C36.4825 42.4213 36.446 42.3898 36.3982 42.3487C36.3026 42.2665 36.1621 42.1459 35.9823 41.9918C35.6228 41.6836 35.1061 41.2416 34.4766 40.7058C33.2179 39.6344 31.5077 38.1873 29.7028 36.6856C27.8988 35.1847 25.9958 33.6256 24.3529 32.3315C22.7324 31.0552 21.3039 29.9876 20.4774 29.5123L19.4804 31.2461ZM10.692 28.5491C13.1179 28.5444 16.5797 29.578 19.4804 31.2461L20.4774 29.5123C17.3632 27.7215 13.5571 26.5435 10.6881 26.5491L10.692 28.5491Z" fill="#E8E8E8"/>
</svg>
