<svg width="50" height="50" viewBox="0 0 50 50" fill="none" xmlns="http://www.w3.org/2000/svg">
<path d="M4.16666 23.9583C4.16666 12.4521 13.4937 3.125 25 3.125C36.5062 3.125 45.8333 12.4521 45.8333 23.9583L25 26.0417L4.16666 23.9583Z" fill="#00C853"/>
<path d="M45.8333 23.9583C45.8333 35.4646 36.5062 44.7917 25 44.7917C13.4937 44.7917 4.16666 35.4646 4.16666 23.9583H45.8333Z" fill="#00E676"/>
<path d="M40.9271 44.1042V47.3958C40.9271 47.5937 40.8229 47.7604 40.6667 47.8437C40.5209 47.9375 40.3229 47.9479 40.1459 47.8437L37.3125 46.1875L32.4375 37.6979L30.3542 34.0833L26.4479 27.2917L29.5 24.2396L33.6563 31.4687L35.8125 35.2187L40.9271 44.1042Z" fill="#C2EAFD"/>
<path d="M32.5323 29.5156C31.6844 30.6625 30.5854 31.6104 29.3115 32.274L33.4688 39.5042C34.7031 38.8292 35.8354 37.9979 36.8698 37.0604L32.5323 29.5156Z" fill="#9ADDFB"/>
<path d="M40.625 23.9583C40.625 28.375 38.7812 32.375 35.8125 35.2187C34.8125 36.1875 33.6771 37.0208 32.4375 37.6979C30.2292 38.8958 27.6979 39.5833 25 39.5833C22.3646 39.5833 19.8333 38.9375 17.5625 37.6979L12.6875 46.1875L9.85416 47.8437C9.67707 47.9479 9.47916 47.9375 9.33332 47.8437C9.17707 47.7604 9.07291 47.5937 9.07291 47.3958V44.1042L20.5 24.2396L23.5521 27.2917L19.6458 34.0937C21.2812 34.9583 23.1042 35.4167 25 35.4167C26.9375 35.4167 28.7604 34.9375 30.3542 34.0833C31.6146 33.4271 32.7292 32.5312 33.6562 31.4687C35.4062 29.4479 36.4583 26.8333 36.4583 23.9583H40.625Z" fill="#C2EAFD"/>
<path d="M29.6875 13.5417H27.0833V10.4167H22.9167V13.5417H20.3125C19.45 13.5417 18.75 14.2417 18.75 15.1042V23.9583L23.8875 29.0958C24.5021 29.7104 25.4979 29.7104 26.1115 29.0958L31.25 23.9583V15.1042C31.25 14.2417 30.55 13.5417 29.6875 13.5417ZM25 22.9167C23.5615 22.9167 22.3958 21.751 22.3958 20.3125C22.3958 18.874 23.5615 17.7083 25 17.7083C26.4385 17.7083 27.6042 18.874 27.6042 20.3125C27.6042 21.751 26.4385 22.9167 25 22.9167Z" fill="#37474F"/>
</svg>
