<svg width="50" height="50" viewBox="0 0 50 50" fill="none" xmlns="http://www.w3.org/2000/svg">
<path d="M43.75 38.5417C43.75 41.4187 41.4187 43.75 38.5417 43.75H11.4583C8.58229 43.75 6.25 41.4187 6.25 38.5417V11.4583C6.25 8.58125 8.58229 6.25 11.4583 6.25H38.5417C41.4187 6.25 43.75 8.58125 43.75 11.4583V38.5417Z" fill="#673AB7"/>
<path d="M34.4062 26.6667C33.7292 25.7292 32.75 25.0833 31.4896 24.7396C31.4896 24.7396 32.5521 24.3542 33.5104 22.9167C34.0833 22 34.375 20.8958 34.375 19.6042C34.375 17.3646 33.5625 15.6458 31.9375 14.4688C30.3125 13.2917 28.4792 12.5 25.3646 12.5H15.625V37.5H26.4896C29.4375 37.4792 31.6562 36.8438 33.1667 35.625C34.6667 34.3854 35.4167 32.5521 35.4167 30.1042C35.4167 28.75 35.0833 27.6042 34.4062 26.6667ZM21.875 16.6667C21.875 16.6667 26.2188 16.6667 26.3021 16.6667C27.8854 16.6667 29.1667 17.9479 29.1667 19.5312C29.1667 21.1146 27.8854 22.3958 26.3021 22.3958C26.2188 22.3958 21.875 22.3958 21.875 22.3958V16.6667ZM27.0833 33.3333H21.875V27.0833H27.0833C28.8125 27.0833 30.2083 28.4792 30.2083 30.2083C30.2083 31.9375 28.8125 33.3333 27.0833 33.3333Z" fill="white"/>
</svg>
