<svg width="50" height="50" viewBox="0 0 50 50" fill="none" xmlns="http://www.w3.org/2000/svg">
<path d="M42.7083 5.20834H7.29166L10.4167 40.625L25 44.7917L39.5833 40.625L42.7083 5.20834Z" fill="#E65100"/>
<path d="M25 8.33334V41.5625L36.6667 38.2292L39.2708 8.33334H25Z" fill="#FF6D00"/>
<path d="M25 26.0417V21.875H33.9583L33.2292 33.8542L25 36.5625V32.1875L29.2708 30.7292L29.5833 26.0417H25ZM34.2708 17.7083L34.5833 13.5417H25V17.7083H34.2708Z" fill="white"/>
<path d="M25 32.1875V36.5625L16.7708 33.8542L16.3542 28.125H20.5208L20.7292 30.7292L25 32.1875ZM19.8958 17.7083H25V13.5417H15.5208L16.25 26.0417H25V21.875H20.2083L19.8958 17.7083Z" fill="#EEEEEE"/>
</svg>
