<svg width="50" height="50" viewBox="0 0 50 50" fill="none" xmlns="http://www.w3.org/2000/svg">
<path d="M24.6355 25.9354C23.5959 24.2594 22.8417 22.8698 21.7969 20.2531C20.0302 15.8333 32.5417 11.8396 27.4688 4.16563C29.6678 9.46667 19.5761 12.7438 18.6386 17.1583C17.7813 21.2188 24.6303 25.9354 24.6355 25.9354Z" fill="#F44336"/>
<path d="M24.8729 17.9896C24.6729 20.6104 27.1947 22.0073 27.2677 23.9219C27.326 25.4802 25.7604 26.7792 25.7604 26.7792C25.7604 26.7792 28.602 26.2208 29.4885 23.8438C30.4729 21.2042 27.5781 19.3969 27.876 17.2833C28.1541 15.2646 34.1583 11.5094 34.1583 11.5094C34.1583 11.5094 25.3239 12.0948 24.8729 17.9896Z" fill="#F44336"/>
<path d="M33.4208 26.099C35.2479 25.6885 36.7886 26.8521 36.7886 28.1927C36.7886 31.2146 32.6 34.0708 32.6 34.0708C32.6 34.0708 39.0844 33.2979 39.0844 28.3365C39.0844 25.0552 35.9 24.2354 33.4208 26.099ZM30.3427 28.5365C30.3427 28.5365 32.3646 27.0958 32.9031 26.5552C27.9417 27.6083 16.6136 27.75 16.6136 26.8354C16.6136 25.9927 20.2667 25.1292 20.2667 25.1292C20.2667 25.1292 12.1698 25.0125 12.1698 27.401C12.1698 29.8906 22.7688 30.0687 30.3427 28.5365Z" fill="#1565C0"/>
<path d="M29.0989 30.8031C24.402 32.3646 15.751 31.8656 18.3135 29.7687C17.0656 29.7687 15.2156 30.7719 15.2156 31.7365C15.2156 33.6708 24.5718 35.1646 31.4968 32.3323L29.0989 30.8031Z" fill="#1565C0"/>
<path d="M19.4646 34.1031C17.7605 34.1031 16.6573 35.201 16.6573 36.001C16.6573 38.4917 26.824 38.7427 30.8521 36.2146L28.2917 34.5146C25.2823 35.8375 17.723 36.0198 19.4646 34.1031Z" fill="#1565C0"/>
<path d="M37.7927 38.1583C37.7927 37.1833 36.6937 36.724 36.3 36.5042C38.6208 42.101 13.0531 41.6667 13.0531 38.3625C13.0531 37.6115 14.9354 36.876 16.675 37.224L15.1958 36.35C11.7292 35.8062 9.375 37.3302 9.375 38.5594C9.375 44.2917 37.7927 44.0156 37.7927 38.1583Z" fill="#1565C0"/>
<path d="M40.6249 40.2125C36.3062 44.4781 25.3552 46.0323 14.3427 43.3969C25.3552 48.0875 40.5729 45.4458 40.6249 40.2125Z" fill="#1565C0"/>
</svg>
