<svg width="50" height="50" viewBox="0 0 50 50" fill="none" xmlns="http://www.w3.org/2000/svg">
<path d="M25 28.5C26.933 28.5 28.5 26.933 28.5 25C28.5 23.067 26.933 21.5 25 21.5C23.067 21.5 21.5 23.067 21.5 25C21.5 26.933 23.067 28.5 25 28.5Z" fill="#39C1D7"/>
<path d="M25 29C22.7945 29 21 27.2055 21 25C21 22.7945 22.7945 21 25 21C27.2055 21 29 22.7945 29 25C29 27.2055 27.2055 29 25 29ZM25 22C23.3455 22 22 23.3455 22 25C22 26.6545 23.3455 28 25 28C26.6545 28 28 26.6545 28 25C28 23.3455 26.6545 22 25 22Z" fill="#1F212B"/>
<path d="M44.25 25C44.25 22.312 41.013 19.9855 35.991 18.601C37.282 13.553 36.8845 9.5835 34.5775 8.2365C33.6675 7.705 32.5635 7.608 31.2965 7.947C29.3875 8.458 27.2 9.952 25 12.1465C22.8 9.952 20.6125 8.4585 18.7035 7.947C17.4365 7.6075 16.3325 7.705 15.4225 8.2365C13.1155 9.5835 12.718 13.5525 14.009 18.601C8.987 19.9855 5.75 22.312 5.75 25C5.75 27.688 8.987 30.0145 14.009 31.3995C12.718 36.4475 13.1155 40.417 15.4225 41.764C15.9785 42.0885 16.6065 42.252 17.3005 42.2515C17.742 42.2515 18.2105 42.1855 18.7035 42.0535C20.6125 41.542 22.8 40.0485 25 37.854C27.2 40.0485 29.3875 41.542 31.2965 42.0535C31.7895 42.1855 32.258 42.2515 32.6995 42.2515C33.3935 42.2515 34.0215 42.089 34.5775 41.764C36.8845 40.417 37.2815 36.4475 35.991 31.3995C41.013 30.0145 44.25 27.688 44.25 25ZM31.6845 9.3955C32.047 9.299 32.383 9.25 32.6925 9.25C33.1225 9.25 33.5005 9.344 33.821 9.5315C35.367 10.4345 35.6825 13.7415 34.531 18.237C32.9445 17.88 31.2135 17.6115 29.374 17.4455C28.2945 15.889 27.1715 14.472 26.04 13.231C28.049 11.2175 30.02 9.8415 31.6845 9.3955ZM30.3775 28.1495C29.788 29.1825 29.1675 30.172 28.531 31.119C27.401 31.2035 26.223 31.25 25 31.25C23.777 31.25 22.599 31.2035 21.4695 31.119C20.833 30.172 20.2125 29.1825 19.623 28.1495C19.0135 27.0815 18.4665 26.0295 17.9765 25.0005C18.4665 23.9715 19.0135 22.9195 19.623 21.851C20.213 20.8175 20.833 19.828 21.47 18.881C22.5995 18.7965 23.777 18.75 25 18.75C26.223 18.75 27.4005 18.7965 28.5305 18.881C29.167 19.828 29.7875 20.818 30.3775 21.851C30.987 22.919 31.534 23.971 32.024 25.0005C31.534 26.0295 30.987 27.0815 30.3775 28.1495ZM32.822 26.7725C33.3425 28.003 33.7725 29.1875 34.1205 30.3135C32.983 30.567 31.755 30.7785 30.4435 30.935C30.8645 30.272 31.2795 29.594 31.68 28.8925C32.0855 28.183 32.464 27.4755 32.822 26.7725ZM25 35.6785C24.182 34.774 23.3655 33.7725 22.568 32.689C23.364 32.7275 24.174 32.75 25 32.75C25.826 32.75 26.636 32.7275 27.432 32.689C26.6345 33.772 25.818 34.7735 25 35.6785ZM19.556 30.935C18.245 30.7785 17.0165 30.567 15.879 30.3135C16.227 29.1875 16.657 28.0025 17.1775 26.7725C17.5355 27.4755 17.9145 28.183 18.3195 28.8925C18.7205 29.5945 19.135 30.2725 19.556 30.935ZM17.178 23.228C16.6575 21.9975 16.227 20.8125 15.8795 19.686C17.017 19.4325 18.2455 19.221 19.557 19.0645C19.1355 19.7275 18.721 20.406 18.3205 21.1075C17.9145 21.8175 17.536 22.525 17.178 23.228ZM25 14.322C25.818 15.2265 26.6345 16.228 27.432 17.3115C26.636 17.2725 25.826 17.25 25 17.25C24.174 17.25 23.364 17.2725 22.568 17.311C23.3655 16.228 24.182 15.2265 25 14.322ZM31.68 21.108C31.2795 20.406 30.8645 19.728 30.4435 19.065C31.755 19.2215 32.983 19.433 34.121 19.6865C33.773 20.813 33.343 21.9975 32.8225 23.2285C32.464 22.525 32.0855 21.8175 31.68 21.108ZM16.179 9.5315C16.5 9.344 16.877 9.25 17.3075 9.25C17.6165 9.25 17.9535 9.299 18.3155 9.3955C19.98 9.8415 21.951 11.217 23.96 13.2305C22.8285 14.4715 21.7055 15.889 20.626 17.445C18.7865 17.611 17.055 17.8795 15.469 18.2365C14.3175 13.741 14.633 10.434 16.179 9.5315ZM7.25 25C7.25 23.202 9.9505 21.28 14.4175 20.0495C14.902 21.629 15.538 23.2925 16.3205 25C15.538 26.7075 14.902 28.371 14.4175 29.9505C9.9505 28.72 7.25 26.798 7.25 25ZM18.3155 40.6045C17.449 40.8355 16.7305 40.79 16.179 40.469C14.633 39.566 14.318 36.259 15.469 31.7635C17.055 32.1205 18.7865 32.389 20.6255 32.555C21.705 34.1115 22.828 35.5285 23.9595 36.77C21.951 38.783 19.98 40.1585 18.3155 40.6045ZM33.821 40.469C33.2695 40.791 32.5515 40.836 31.6845 40.6045C30.02 40.1585 28.049 38.783 26.04 36.7695C27.1715 35.5285 28.2945 34.111 29.374 32.5545C31.2135 32.3885 32.9445 32.12 34.5305 31.763C35.6825 36.259 35.367 39.566 33.821 40.469ZM35.5825 29.9505C35.098 28.371 34.462 26.7075 33.6795 25C34.462 23.2925 35.098 21.6285 35.5825 20.0495C40.0495 21.28 42.75 23.202 42.75 25C42.75 26.798 40.0495 28.72 35.5825 29.9505Z" fill="#39C1D7"/>
<path d="M17.2975 42.501C16.562 42.501 15.889 42.3255 15.297 41.9795C12.981 40.627 12.4055 36.8415 13.708 31.574C8.4875 30.0895 5.5 27.7 5.5 25C5.5 22.3 8.4875 19.9105 13.7075 18.426C12.4055 13.1585 12.981 9.373 15.297 8.0205C16.266 7.4535 17.4335 7.3475 18.7685 7.7055C20.6275 8.2035 22.7785 9.6155 25 11.795C27.222 9.6155 29.373 8.2035 31.2315 7.7055C32.566 7.3485 33.734 7.4545 34.7035 8.0205C37.019 9.373 37.5945 13.1585 36.2925 18.426C41.5125 19.9105 44.5 22.3 44.5 25C44.5 27.7 41.5125 30.0895 36.2925 31.574C37.5945 36.8415 37.0195 40.6265 34.7035 41.9795C33.74 42.542 32.5605 42.6505 31.232 42.2945C29.3725 41.7965 27.2215 40.3845 25 38.2055C22.7785 40.3845 20.6275 41.797 18.7685 42.2945C18.257 42.4315 17.763 42.501 17.3005 42.501C17.2995 42.501 17.2985 42.501 17.2975 42.501ZM17.302 7.9995C16.6515 7.9995 16.065 8.1505 15.5485 8.4525C13.4365 9.686 12.9515 13.4565 14.251 18.539C14.2845 18.671 14.2065 18.806 14.075 18.842C9.019 20.236 6 22.5385 6 25C6 27.4615 9.019 29.764 14.0755 31.158C14.207 31.194 14.285 31.329 14.2515 31.461C12.9515 36.5435 13.4365 40.3145 15.5485 41.5475C16.0635 41.848 16.652 42.0005 17.2975 42.0005C17.2985 42.0005 17.2995 42.0005 17.3005 42.0005C17.7195 42.0005 18.1695 41.937 18.639 41.8115C20.4625 41.323 22.6015 39.8935 24.8235 37.6765C24.921 37.5795 25.079 37.5795 25.1765 37.6765C27.3985 39.893 29.5375 41.3225 31.361 41.8115C32.558 42.131 33.6035 42.042 34.4515 41.5475C36.5635 40.314 37.0485 36.5435 35.7485 31.461C35.715 31.329 35.793 31.194 35.9245 31.158C40.981 29.764 44 27.4615 44 25C44 22.5385 40.981 20.236 35.9245 18.842C35.793 18.806 35.715 18.671 35.7485 18.539C37.048 13.4565 36.563 9.6855 34.451 8.4525C33.6015 7.956 32.5615 7.8675 31.3605 8.1885C29.537 8.677 27.3985 10.1065 25.176 12.3235C25.0785 12.4205 24.9205 12.4205 24.823 12.3235C22.6005 10.1065 20.462 8.677 18.6385 8.1885C18.168 8.0625 17.722 7.9995 17.302 7.9995ZM32.693 40.9995C32.3615 40.9995 32.0035 40.9485 31.62 40.846C29.9545 40.3995 27.964 39.0515 25.863 36.946C25.769 36.8515 25.7655 36.6995 25.855 36.601C26.9875 35.359 28.102 33.9495 29.1685 32.412C29.2105 32.351 29.2775 32.312 29.3515 32.3055C31.1575 32.1425 32.8815 31.878 34.476 31.519C34.6065 31.4895 34.7395 31.5695 34.773 31.701C35.941 36.2625 35.6245 39.705 33.947 40.6845C33.5875 40.8945 33.168 40.9995 32.693 40.9995ZM26.3855 36.7605C28.361 38.7075 30.212 39.951 31.749 40.363C32.5485 40.5765 33.2035 40.5395 33.695 40.253C35.1225 39.419 35.3735 36.2165 34.348 32.0595C32.834 32.389 31.2095 32.6355 29.513 32.793C28.505 34.239 27.454 35.572 26.3855 36.7605ZM17.307 40.9995C16.832 40.9995 16.4125 40.8945 16.053 40.685C14.3755 39.705 14.0585 36.2625 15.227 31.701C15.2605 31.57 15.3935 31.4915 15.524 31.519C17.118 31.878 18.842 32.1425 20.6485 32.3055C20.722 32.312 20.7895 32.351 20.8315 32.412C21.898 33.9495 23.0125 35.359 24.145 36.601C24.235 36.6995 24.2315 36.8515 24.137 36.946C22.036 39.051 20.0455 40.3995 18.3805 40.846C17.9965 40.948 17.638 40.9995 17.307 40.9995ZM15.652 32.0595C14.6265 36.216 14.8775 39.419 16.305 40.253C16.796 40.539 17.451 40.5765 18.251 40.363C19.788 39.951 21.639 38.707 23.6145 36.7605C22.5465 35.572 21.4955 34.239 20.4875 32.793C18.791 32.6355 17.166 32.389 15.652 32.0595ZM25 35.928C24.9295 35.928 24.862 35.898 24.8145 35.8455C23.983 34.926 23.1595 33.9135 22.3665 32.8365C22.3095 32.759 22.302 32.655 22.3475 32.57C22.393 32.485 22.478 32.433 22.58 32.4385C24.233 32.519 25.767 32.519 27.42 32.4385C27.52 32.4325 27.607 32.485 27.6525 32.57C27.698 32.655 27.691 32.7585 27.6335 32.8365C26.8405 33.913 26.017 34.9255 25.1855 35.8455C25.138 35.898 25.0705 35.928 25 35.928ZM23.0835 32.962C23.709 33.7895 24.352 34.575 25 35.304C25.6485 34.575 26.291 33.79 26.9165 32.962C25.6105 33.012 24.3895 33.012 23.0835 32.962ZM25 31.5C23.8155 31.5 22.6215 31.456 21.4505 31.3685C21.374 31.363 21.3045 31.3225 21.2615 31.2585C20.593 30.264 19.9685 29.2595 19.4055 28.2735C18.8155 27.2395 18.2585 26.1745 17.7505 25.1075C17.718 25.0395 17.718 24.9605 17.7505 24.8925C18.2585 23.8255 18.8155 22.7605 19.4055 21.7265C19.968 20.7415 20.5925 19.737 21.262 18.741C21.3045 18.6775 21.3745 18.637 21.451 18.631C23.793 18.456 26.2075 18.456 28.549 18.631C28.6255 18.6365 28.695 18.677 28.738 18.741C29.4075 19.737 30.032 20.7415 30.5945 21.7265C31.1845 22.7605 31.7415 23.8255 32.2495 24.8925C32.282 24.9605 32.282 25.0395 32.2495 25.1075C31.7415 26.1745 31.1845 27.2395 30.5945 28.2735C30.0315 29.2595 29.407 30.264 28.7385 31.2585C28.696 31.322 28.626 31.3625 28.5495 31.3685C27.3785 31.456 26.1845 31.5 25 31.5ZM21.609 30.8785C23.8485 31.0395 26.1515 31.0395 28.3905 30.8785C29.027 29.927 29.622 28.9675 30.16 28.025C30.724 27.0365 31.2575 26.0195 31.7465 25C31.2575 23.9805 30.724 22.963 30.16 21.975C29.6225 21.0335 29.0275 20.074 28.39 19.121C26.1505 18.96 23.848 18.96 21.6085 19.121C20.9715 20.074 20.376 21.0335 19.8385 21.975C19.2745 22.9635 18.741 23.9805 18.252 25C18.741 26.0195 19.2745 27.037 19.8385 28.025C20.3775 28.968 20.9725 29.927 21.609 30.8785ZM30.444 31.1855C30.359 31.1855 30.2785 31.142 30.2325 31.069C30.181 30.987 30.1815 30.883 30.233 30.8015C30.697 30.071 31.0995 29.406 31.463 28.769C31.845 28.1 32.227 27.39 32.5995 26.6595C32.6435 26.573 32.736 26.5215 32.831 26.5235C32.928 26.527 33.0145 26.586 33.0525 26.676C33.56 27.8755 33.9995 29.075 34.3595 30.2405C34.3805 30.307 34.372 30.3795 34.337 30.4395C34.302 30.5 34.243 30.543 34.175 30.558C33 30.8205 31.7545 31.031 30.4735 31.184C30.4635 31.185 30.4535 31.1855 30.444 31.1855ZM32.798 27.3655C32.501 27.9345 32.199 28.488 31.8975 29.0165C31.606 29.5275 31.2895 30.056 30.9375 30.621C31.9225 30.49 32.8825 30.3245 33.801 30.1275C33.5125 29.2205 33.1765 28.295 32.798 27.3655ZM19.556 31.1855C19.546 31.1855 19.536 31.185 19.526 31.184C18.2455 31.0305 17 30.82 15.825 30.5575C15.757 30.5425 15.6985 30.4995 15.663 30.439C15.628 30.3785 15.62 30.3065 15.6405 30.24C16.0005 29.074 16.44 27.875 16.9475 26.6755C16.9855 26.586 17.072 26.5265 17.169 26.523C17.26 26.5135 17.3565 26.5725 17.4005 26.659C17.773 27.3895 18.155 28.0995 18.537 28.7685C18.901 29.4055 19.3035 30.0705 19.767 30.801C19.819 30.8825 19.819 30.9865 19.7675 31.0685C19.7215 31.142 19.6415 31.1855 19.556 31.1855ZM16.1995 30.1275C17.118 30.3245 18.078 30.49 19.063 30.621C18.7105 30.056 18.3945 29.5275 18.103 29.0165C17.801 28.488 17.4995 27.934 17.2025 27.3655C16.8235 28.295 16.4875 29.2205 16.1995 30.1275ZM35.5825 30.2005C35.475 30.2005 35.3765 30.131 35.3435 30.0235C34.856 28.434 34.2195 26.779 33.4525 25.1045C33.422 25.0385 33.422 24.962 33.4525 24.896C34.2195 23.2215 34.856 21.566 35.344 19.976C35.384 19.8465 35.521 19.774 35.6495 19.8085C40.1835 21.058 43 23.047 43 25C43 26.953 40.183 28.942 35.6485 30.1915C35.6265 30.1975 35.604 30.2005 35.5825 30.2005ZM33.9545 25C34.6725 26.5775 35.276 28.1385 35.749 29.644C39.8585 28.4725 42.5 26.661 42.5 25C42.5 23.339 39.8585 21.5275 35.749 20.356C35.2755 21.862 34.672 23.423 33.9545 25ZM14.4175 30.2005C14.3955 30.2005 14.3735 30.1975 14.351 30.1915C9.817 28.942 7 26.953 7 25C7 23.047 9.8165 21.058 14.351 19.8085C14.48 19.774 14.6165 19.8465 14.6565 19.976C15.1445 21.566 15.781 23.2215 16.548 24.896C16.5785 24.962 16.5785 25.038 16.548 25.1045C15.7805 26.7795 15.1445 28.4345 14.657 30.0235C14.624 30.131 14.525 30.2005 14.4175 30.2005ZM14.251 20.356C10.1415 21.5275 7.5 23.339 7.5 25C7.5 26.661 10.1415 28.4725 14.251 29.644C14.7245 28.1385 15.3275 26.578 16.0455 25C15.328 23.423 14.7245 21.862 14.251 20.356ZM32.8225 23.4785C32.7285 23.4785 32.6425 23.426 32.5995 23.342C32.221 22.598 31.849 21.9075 31.4635 21.232C31.1005 20.596 30.698 19.931 30.233 19.199C30.181 19.1175 30.181 19.0135 30.2325 18.9315C30.284 18.85 30.376 18.805 30.474 18.8165C31.7555 18.97 33.001 19.1805 34.176 19.4425C34.244 19.4575 34.3025 19.5005 34.338 19.561C34.373 19.6215 34.381 19.6935 34.3605 19.76C34 20.928 33.56 22.1275 33.0535 23.3255C33.0155 23.415 32.929 23.4745 32.832 23.478C32.828 23.4785 32.825 23.4785 32.8225 23.4785ZM31.897 20.984C32.2025 21.519 32.4995 22.063 32.7975 22.635C33.1755 21.707 33.5115 20.7805 33.8 19.8725C32.8815 19.6755 31.9215 19.51 30.936 19.379C31.29 19.945 31.606 20.4735 31.897 20.984ZM17.1775 23.4785C17.1745 23.4785 17.1715 23.4785 17.1685 23.4785C17.0715 23.475 16.985 23.416 16.947 23.326C16.4405 22.128 16.0005 20.9285 15.64 19.7605C15.619 19.694 15.6275 19.6215 15.6625 19.5615C15.6975 19.501 15.7565 19.458 15.8245 19.443C16.9995 19.1805 18.245 18.97 19.5265 18.817C19.624 18.807 19.7165 18.8505 19.768 18.932C19.8195 19.014 19.819 19.118 19.7675 19.1995C19.3025 19.9315 18.9 20.5965 18.537 21.2325C18.1515 21.908 17.7795 22.598 17.401 23.3425C17.3575 23.426 17.2715 23.4785 17.1775 23.4785ZM16.1995 19.8725C16.488 20.7805 16.8245 21.707 17.202 22.635C17.5005 22.063 17.797 21.519 18.1025 20.984C18.394 20.4735 18.71 19.945 19.063 19.379C18.078 19.51 17.118 19.6755 16.1995 19.8725ZM34.5315 18.487C34.513 18.487 34.495 18.485 34.4765 18.481C32.8825 18.122 31.158 17.8575 29.3515 17.6945C29.278 17.688 29.2105 17.649 29.1685 17.588C28.102 16.05 26.987 14.641 25.855 13.3995C25.765 13.301 25.7685 13.149 25.863 13.0545C27.9635 10.9495 29.9545 9.6005 31.62 9.1545C32.5545 8.9045 33.339 8.961 33.947 9.3155C35.6245 10.2955 35.9415 13.738 34.7735 18.2995C34.7445 18.4115 34.6435 18.487 34.5315 18.487ZM29.5125 17.207C31.209 17.3645 32.834 17.611 34.348 17.9405C35.3735 13.784 35.1225 10.581 33.6945 9.747C33.205 9.4615 32.549 9.424 31.749 9.637C30.212 10.049 28.3605 11.293 26.385 13.24C27.4535 14.4275 28.5045 15.7605 29.5125 17.207ZM15.4685 18.487C15.3565 18.487 15.2555 18.4115 15.2265 18.299C14.0585 13.7375 14.375 10.2955 16.0525 9.3155C16.6605 8.961 17.4465 8.9045 18.3795 9.1545C20.0455 9.601 22.036 10.9495 24.1365 13.0545C24.2305 13.149 24.234 13.301 24.1445 13.3995C23.0125 14.641 21.8975 16.0505 20.831 17.588C20.789 17.649 20.722 17.688 20.648 17.6945C18.842 17.8575 17.1175 18.122 15.523 18.481C15.505 18.485 15.487 18.487 15.4685 18.487ZM16.305 9.747C14.8775 10.581 14.6265 13.784 15.6515 17.9405C17.1655 17.611 18.7905 17.3645 20.487 17.207C21.4955 15.7605 22.546 14.4275 23.614 13.2395C21.6385 11.2925 19.7875 10.0485 18.25 9.6365C17.4535 9.424 16.7965 9.461 16.305 9.747ZM27.432 17.561C27.428 17.561 27.424 17.561 27.42 17.561C25.767 17.4805 24.2335 17.4805 22.5805 17.561C22.4775 17.5635 22.3935 17.514 22.348 17.4295C22.3025 17.3445 22.3095 17.241 22.367 17.163C23.1605 16.0855 23.984 15.073 24.815 14.154C24.91 14.0495 25.091 14.0495 25.186 14.154C26.0165 15.0725 26.84 16.085 27.634 17.163C27.691 17.2405 27.6985 17.3445 27.653 17.4295C27.6085 17.5105 27.5235 17.561 27.432 17.561ZM25 17C25.621 17 26.2635 17.013 26.9165 17.0385C26.2905 16.21 25.6475 15.4245 25 14.6965C24.3525 15.425 23.7095 16.21 23.0835 17.0385C23.7365 17.013 24.379 17 25 17Z" fill="#1F212B"/>
</svg>
