<svg width="50" height="50" viewBox="0 0 50 50" fill="none" xmlns="http://www.w3.org/2000/svg">
<path d="M43.75 6.25H6.25V43.75H43.75V6.25Z" fill="#1976D2"/>
<path d="M28.6354 22.9167H14.8198V26.3167H19.775V41.6667H23.7011V26.3167H28.6354V22.9167Z" fill="white"/>
<path d="M40.8271 27.1708C40.8271 27.1708 38.9657 25.9292 36.8615 25.9292C34.7573 25.9292 34 26.9292 34 27.9979C34 30.7563 41.6886 30.4802 41.6886 36.0313C41.6886 44.5823 29.9657 40.7896 29.9657 40.7896V36.6875C29.9657 36.6875 32.2073 38.3771 34.8959 38.3771C37.5844 38.3771 37.4823 36.6188 37.4823 36.3771C37.4823 33.826 29.8625 33.826 29.8625 28.1708C29.8625 20.4823 40.9646 23.5156 40.9646 23.5156L40.8271 27.1708Z" fill="white"/>
</svg>
