<svg width="50" height="50" viewBox="0 0 50 50" fill="none" xmlns="http://www.w3.org/2000/svg">
<path fill-rule="evenodd" clip-rule="evenodd" d="M23.8573 3.42292C24.5646 3.02604 25.4355 3.02604 26.1417 3.42292C29.6365 5.38437 40.1532 11.2885 43.649 13.25C44.3563 13.6458 44.7917 14.3792 44.7917 15.1729C44.7917 19.0958 44.7917 30.9031 44.7917 34.826C44.7917 35.6198 44.3563 36.3531 43.649 36.75C40.1542 38.7115 29.6375 44.6156 26.1417 46.5771C25.4344 46.974 24.5636 46.974 23.8573 46.5771C20.3625 44.6156 9.84587 38.7115 6.35004 36.75C5.64379 36.3531 5.20837 35.6208 5.20837 34.8271C5.20837 30.9042 5.20837 19.0969 5.20837 15.174C5.20837 14.3802 5.64379 13.6469 6.35108 13.25C9.84483 11.2885 20.3636 5.38437 23.8573 3.42292Z" fill="#283593"/>
<path fill-rule="evenodd" clip-rule="evenodd" d="M5.52504 35.8375C5.24796 35.4667 5.20837 35.1146 5.20837 34.6406C5.20837 30.7406 5.20837 19.001 5.20837 15.1C5.20837 14.3104 5.64275 13.5813 6.34796 13.1875C9.83025 11.2375 20.3115 5.36771 23.7938 3.41667C24.499 3.02188 25.4542 3.03021 26.1594 3.425C29.6417 5.375 40.0875 11.1948 43.5698 13.1448C43.8511 13.3031 44.0657 13.4938 44.2573 13.7448L5.52504 35.8375Z" fill="#5C6BC0"/>
<path fill-rule="evenodd" clip-rule="evenodd" d="M25 10.4167C33.0489 10.4167 39.5833 16.951 39.5833 25C39.5833 33.049 33.0489 39.5833 25 39.5833C16.951 39.5833 10.4166 33.049 10.4166 25C10.4166 16.951 16.951 10.4167 25 10.4167ZM25 17.7083C29.0239 17.7083 32.2916 20.975 32.2916 25C32.2916 29.024 29.0239 32.2917 25 32.2917C20.976 32.2917 17.7083 29.024 17.7083 25C17.7083 20.975 20.975 17.7083 25 17.7083Z" fill="white"/>
<path fill-rule="evenodd" clip-rule="evenodd" d="M44.2552 13.7552C44.7927 14.2583 44.7823 15.0167 44.7823 15.6135C44.7823 19.5667 44.749 30.8104 44.7917 34.7635C44.7958 35.176 44.6594 35.6104 44.4552 35.9375L24.576 25L44.2552 13.7552Z" fill="#3949AB"/>
</svg>
