<svg width="50" height="50" viewBox="0 0 50 50" fill="none" xmlns="http://www.w3.org/2000/svg">
<path fill-rule="evenodd" clip-rule="evenodd" d="M8.33333 16.6667V29.8396C6.93229 30.1042 6.19687 30.2083 5.08125 30.2083C1.73958 30.2052 0 28.7135 0 25.85C0 23.0906 1.84479 21.3 4.70417 21.3C5.14792 21.3 5.48542 21.3344 5.89479 21.4396V16.6667H8.33333ZM5.89479 23.6167C5.57396 23.5125 5.31042 23.4771 4.97187 23.4771C3.58854 23.4771 2.78854 24.3198 2.78854 25.7979C2.78854 27.2365 3.55312 28.0302 4.95417 28.0302C5.25729 28.0302 5.50312 28.0135 5.89479 27.9604V23.6167Z" fill="#004D40"/>
<path fill-rule="evenodd" clip-rule="evenodd" d="M12.5 20.8812V27.775C12.5 29.9375 12.3386 31.1333 11.8625 32.0292C11.4188 32.8906 10.8344 33.4344 9.6271 34.0344L7.08856 32.8375C8.29585 32.276 8.88127 31.7802 9.25419 31.0229C9.64481 30.249 9.76877 29.1958 9.76877 26.8385V20.8792H12.5V20.8812Z" fill="#004D40"/>
<path d="M12.5 16.6667H9.7677V19.4927H12.5V16.6667Z" fill="#004D40"/>
<path fill-rule="evenodd" clip-rule="evenodd" d="M14.3062 21.7458C15.4896 21.1708 16.6219 20.9177 17.8562 20.9177C19.2323 20.9177 20.1364 21.2958 20.5364 22.0354C20.7604 22.449 20.8333 22.9875 20.8333 24.1406V29.7729C19.6333 29.951 18.1187 30.0792 17.0073 30.0792C14.7614 30.0792 13.7542 29.2688 13.7542 27.4698C13.7542 25.524 15.0927 24.625 18.3802 24.3385V23.7292C18.3802 23.226 18.1354 23.0438 17.4594 23.0438C16.4698 23.0438 15.3552 23.3333 14.3094 23.8896L14.3062 21.7458ZM18.501 26.1531C16.7281 26.3313 16.1521 26.6208 16.1521 27.3417C16.1521 27.8813 16.4833 28.1344 17.2146 28.1344C17.6146 28.1344 17.9802 28.099 18.501 28.0094V26.1531Z" fill="#004D40"/>
<path fill-rule="evenodd" clip-rule="evenodd" d="M22.3104 21.5552C23.8938 21.1167 25.1979 20.9167 26.5198 20.9167C27.8927 20.9167 28.8875 21.2469 29.4771 21.8854C30.0313 22.4875 30.2083 23.1479 30.2083 24.5552V30.0792H27.5271V24.6677C27.5271 23.5865 27.1781 23.1844 26.2229 23.1844C25.8573 23.1844 25.5261 23.2208 24.9875 23.3875V30.0802H22.3104V21.5552Z" fill="#004D40"/>
<path fill-rule="evenodd" clip-rule="evenodd" d="M31.4344 31.2562C32.3917 31.7625 33.35 31.9958 34.3635 31.9958C36.1562 31.9958 36.9198 31.5031 36.9198 29.7292V29.675C36.3885 29.9437 35.8521 30.0562 35.1448 30.0562C32.7469 30.0562 31.25 28.4448 31.25 25.8927C31.25 22.7229 33.4802 20.9323 37.4729 20.9323C38.6458 20.9323 39.7302 21.0583 41.0427 21.3312L40.1062 23.3417C39.3781 23.1979 40.0469 23.3198 39.4979 23.2667V23.5573L39.5333 24.7344L39.551 26.2562C39.5688 26.6375 39.5687 27.0167 39.5865 27.3979V28.1583C39.5865 30.549 39.3885 31.4198 38.8042 32.3458C37.9521 33.7021 36.4771 34.374 34.3813 34.374C33.3146 34.374 32.3917 34.2125 31.4344 33.8312V31.2562ZM36.8667 23.1781H36.7781H36.5802C36.049 23.1604 35.426 23.3042 34.999 23.5771C34.3448 23.9573 34.0062 24.6469 34.0062 25.6229C34.0062 27.0156 34.6823 27.8125 35.8896 27.8125C36.2625 27.8125 36.5656 27.7406 36.9177 27.6333V27.4323V26.6719C36.9177 26.3448 36.9 25.9823 36.9 25.6021L36.8823 24.3167L36.8646 23.3937V23.1781H36.8667Z" fill="#004D40"/>
<path fill-rule="evenodd" clip-rule="evenodd" d="M45.3813 20.8812C48.249 20.8812 50 22.6104 50 25.4104C50 28.2812 48.175 30.0802 45.2667 30.0802C42.3958 30.0802 40.625 28.3521 40.625 25.5698C40.6302 22.6812 42.4552 20.8812 45.3813 20.8812ZM45.3219 27.8667C46.4229 27.8667 47.0729 26.9937 47.0729 25.4771C47.0729 23.9781 46.4406 23.0875 45.3406 23.0875C44.2021 23.0875 43.551 23.9604 43.551 25.4771C43.5521 26.9937 44.2062 27.8667 45.3219 27.8667Z" fill="#004D40"/>
</svg>
