<svg width="50" height="50" viewBox="0 0 50 50" fill="none" xmlns="http://www.w3.org/2000/svg">
<path d="M41.6667 20.8333C42.0739 19.026 41.5708 16.8958 39.0625 14.5833C34.9854 18.2739 36.151 22.1114 37.5 23.9583C37.5 23.9583 37.3271 25 33.3333 25C29.3396 25 2.08332 25 2.08332 25C2.08332 25 0.173946 41.6666 18.75 41.6666C34.9927 41.6666 39.5552 29.1635 40.4458 25.9625C40.8146 26.0125 41.2281 26.0448 41.6667 26.0416C43.9031 26.0239 46.8021 24.8219 47.9167 20.3291C44.9604 19.3052 43.0614 19.7687 41.6667 20.8333Z" fill="#03A9F4"/>
<path d="M2.25522 29.1667C3.02084 34.1031 6.2323 41.6667 18.75 41.6667C31.4427 41.6667 37.0031 34.0313 39.2521 29.1667H2.25522Z" fill="#0288D1"/>
<path d="M20.6375 41.6021C19.6792 41.2667 15.3542 40.4667 14.5834 34.375C10.199 36.3156 6.3146 35.8073 4.60522 35.425C6.85731 38.7885 11.0323 41.6667 18.75 41.6667C19.399 41.6667 20.025 41.6417 20.6375 41.6021Z" fill="#81D4FA"/>
<path d="M18.75 31.25C18.1975 31.25 17.6676 31.4695 17.2769 31.8602C16.8862 32.2509 16.6667 32.7808 16.6667 33.3333C16.6667 33.8859 16.8862 34.4158 17.2769 34.8065C17.6676 35.1972 18.1975 35.4167 18.75 35.4167C19.3025 35.4167 19.8324 35.1972 20.2231 34.8065C20.6138 34.4158 20.8333 33.8859 20.8333 33.3333C20.8333 32.7808 20.6138 32.2509 20.2231 31.8602C19.8324 31.4695 19.3025 31.25 18.75 31.25Z" fill="white"/>
<path d="M15.5354 34.9969C15.7688 35.5229 15.5563 36.2073 15.0042 36.3698C11.5656 37.3833 8.60209 37.5177 6.36147 37.5177C5.69063 36.8729 5.11772 36.1854 4.63647 35.4729C7.32918 35.4729 11.6261 35.3479 14.1615 34.4666C14.7052 34.2771 15.3021 34.4687 15.5354 34.9969ZM2.08334 28.125C2.08334 28.125 4.03647 28.2552 5.20834 27.0833C7.16147 28.8416 11.3958 28.2166 12.5 27.0833C13.6073 28.8416 19.7271 28.5156 20.8333 27.0833C22.1354 28.5812 27.7344 28.9062 29.1667 27.0833C29.6656 28.6052 36.2698 29.0354 37.5 27.0833C38.6052 28.2166 42.774 29.1021 45.1156 27.0833C45.7031 28.3208 47.9167 28.125 47.9167 28.125V29.1666H2.08334M17.7083 33.3333C17.7083 33.9083 18.175 34.375 18.75 34.375C19.325 34.375 19.7917 33.9083 19.7917 33.3333C19.7917 32.7583 19.325 32.2916 18.75 32.2916C18.175 32.2916 17.7083 32.7583 17.7083 33.3333Z" fill="#37474F"/>
<path d="M11.4583 25H6.25V19.7916H11.4583V25ZM21.875 19.7916H16.6667V25H21.875V19.7916ZM32.2917 19.7916H27.0833V25H32.2917V19.7916ZM16.6667 14.5833H11.4583V19.7916H16.6667V14.5833ZM27.0833 14.5833H21.875V19.7916H27.0833V14.5833Z" fill="#01579B"/>
<path d="M16.6667 25H11.4583V19.7917H16.6667V25ZM27.0833 19.7917H21.875V25H27.0833V19.7917ZM27.0833 9.375H21.875V14.5833H27.0833V9.375ZM21.875 14.5833H16.6667V19.7917H21.875V14.5833Z" fill="#0288D1"/>
</svg>
