<svg width="50" height="50" viewBox="0 0 50 50" fill="none" xmlns="http://www.w3.org/2000/svg">
<g clip-path="url(#clip0_6_444)">
<path d="M2.60939 14.6289C2.19414 14.6638 1.83162 14.9976 2.34962 15.5566C3.34462 16.1186 1.36832 16.5322 1.94532 16.9082C2.12932 17.3042 1.93059 17.7454 1.39259 17.8164C0.60459 17.8844 0.679277 18.9605 1.44728 18.3965C2.30428 18.1245 1.59542 18.504 1.19142 18.582C0.284418 18.846 -0.333629 19.7521 0.193371 20.5801C0.697371 21.7201 0.831668 22.9917 1.22267 24.1777C1.86967 26.0017 2.81498 27.7373 4.04298 29.2363C4.62598 30.0863 5.47831 30.6903 6.27931 31.3203C7.06731 31.8313 7.94481 32.3425 8.84181 32.6035C10.4348 33.1865 12.1444 33.241 13.8184 33.373C14.8384 33.371 15.8622 33.2991 16.8692 33.1191C17.7752 33.2171 18.4271 32.4426 19.2461 32.8516C19.7421 32.4116 20.4649 32.6032 20.9609 32.2832C21.3279 31.0352 19.7006 32.0358 19.1856 31.4258C18.6256 32.0838 18.1556 31.3536 17.4766 31.5586C16.3206 31.6166 17.5642 31.0407 17.5352 30.5117C16.9222 30.0417 16.2299 31.157 15.8379 31.457C14.8699 31.282 13.9114 31.0069 13.0234 30.5879C12.0114 30.0609 11.0182 29.4339 10.2852 28.5449C9.51817 27.6369 8.67032 26.7187 8.32032 25.5527C7.58032 23.6277 7.62847 21.5435 7.43947 19.5215C7.50947 18.1525 8.95509 19.6688 9.58009 19.1738C9.36609 18.4638 8.22571 18.2391 7.59572 17.9551C6.98772 17.9131 6.76615 17.3682 6.11915 17.3242C6.15015 16.5642 4.93034 16.9824 4.48634 16.4414C4.92334 15.3134 3.03856 16.4682 3.18556 15.4922C3.49256 14.8577 3.02464 14.594 2.60939 14.6289ZM2.61525 14.7246C2.71381 14.7 2.82717 14.7198 2.94142 14.8105C3.48342 15.5405 1.94453 14.7268 2.47853 15.4238C2.15378 15.2716 2.31956 14.7984 2.61525 14.7246ZM41.9141 15.0859C41.8471 15.0859 41.6717 15.1773 41.3887 15.3633C41.0387 15.5893 40.6692 15.7675 40.2832 15.8965C40.0412 15.9795 39.9219 16.0951 39.9219 16.2441C39.9219 16.3471 40.0058 16.4274 40.1758 16.4844C40.5368 16.6034 40.7737 16.7675 40.8867 16.9785C40.9697 17.1435 41.0117 17.4364 41.0117 17.8594V24.6152C41.0117 25.2072 40.8689 25.5393 40.5859 25.6113C40.2709 25.6933 40.1133 25.8146 40.1133 25.9746C40.1133 26.0416 40.1189 26.0949 40.1289 26.1309C40.1539 26.2339 40.3219 26.2721 40.6309 26.2461C41.8579 26.1481 42.7292 26.1239 43.2442 26.1699C43.4092 26.1859 43.5098 26.1784 43.5488 26.1504C43.5878 26.1224 43.6074 26.0487 43.6074 25.9297C43.6074 25.7797 43.4862 25.6892 43.2442 25.6582C42.8522 25.6172 42.6022 25.5603 42.4942 25.4883C42.3402 25.3853 42.2561 25.1698 42.2461 24.8398C42.2361 24.5098 42.2324 24.257 42.2324 24.082C42.2324 23.835 42.3537 23.6438 42.5957 23.5098C42.8117 23.3548 42.9628 23.2773 43.0508 23.2773C43.1228 23.2773 43.1825 23.3203 43.2285 23.4023C43.7955 24.3613 44.4868 25.2783 45.3008 26.1543C45.4238 26.2833 45.6309 26.3187 45.9199 26.2617C46.5029 26.2157 46.973 26.1905 47.334 26.1855C47.576 26.1755 47.6973 26.0784 47.6973 25.8984C47.6973 25.7544 47.6683 25.6658 47.6113 25.6328C47.5543 25.5998 47.4089 25.582 47.1719 25.582C46.8529 25.582 46.5086 25.4253 46.1426 25.1113C45.5706 24.6123 44.9624 23.8716 44.3184 22.8926C44.1434 22.6196 44.0567 22.447 44.0567 22.375C44.0567 22.329 44.0762 22.2908 44.1172 22.2598C44.6732 21.7038 45.1975 21.3138 45.6875 21.0918C46.0385 20.9268 46.4116 20.8353 46.8086 20.8203C47.0616 20.8053 47.1875 20.7102 47.1875 20.5352C47.1875 20.3492 47.1073 20.253 46.9473 20.248C46.4583 20.248 45.9657 20.2452 45.4707 20.2402C44.7597 20.2352 44.2187 20.2083 43.8477 20.1563C43.6827 20.1303 43.5912 20.2087 43.5762 20.3887C43.5662 20.5687 43.652 20.6685 43.832 20.6895C44.249 20.7465 44.457 20.8434 44.457 20.9824C44.457 21.0594 44.3955 21.164 44.2715 21.293C43.6475 21.834 43.1233 22.2705 42.6953 22.6055C42.5353 22.7395 42.4169 22.8066 42.3399 22.8066C42.2679 22.8066 42.2305 22.7395 42.2305 22.6055L42.2168 17.7676C42.2168 17.1336 42.2196 16.628 42.2246 16.252C42.2296 15.706 42.2324 15.4503 42.2324 15.4863C42.2324 15.2183 42.1251 15.0859 41.9141 15.0859ZM24.2676 15.1406C24.1856 15.1406 23.9887 15.232 23.6797 15.418C23.3037 15.655 22.9399 15.8304 22.5899 15.9434C22.3579 16.0204 22.2422 16.138 22.2422 16.293C22.2422 16.396 22.3224 16.4743 22.4824 16.5313C22.7864 16.6393 22.9982 16.7923 23.1192 16.9883C23.2402 17.1843 23.3027 17.4912 23.3027 17.9082V24.9023C23.3027 25.3243 23.1619 25.5791 22.8809 25.6641C22.5999 25.7491 22.4609 25.8526 22.4609 25.9766C22.4609 26.1156 22.4842 26.2014 22.5332 26.2324C22.5822 26.2624 22.7128 26.2671 22.9238 26.2461C23.9758 26.1581 24.8554 26.1498 25.5664 26.2168C25.7984 26.2418 25.9141 26.1513 25.9141 25.9453C25.9141 25.7963 25.7994 25.7086 25.5664 25.6836C25.1904 25.6376 24.9245 25.5424 24.7695 25.4004C24.6145 25.2584 24.5371 25.0308 24.5371 24.7168L24.5078 17.8145C24.5018 17.3205 24.5065 16.8166 24.5215 16.3066C24.5425 15.7706 24.5527 15.5122 24.5527 15.5332C24.5527 15.2702 24.4586 15.1406 24.2676 15.1406ZM13.9883 15.9531C13.9313 15.9631 13.8912 16.0172 13.8652 16.1152C13.8142 16.2752 13.8917 16.4011 14.0977 16.4941C14.4267 16.6441 14.6524 16.8111 14.7734 16.9941C14.8945 17.1771 14.9551 17.4393 14.9551 17.7793V24.3965C14.9551 25.2265 14.7023 25.6696 14.1973 25.7266C13.9763 25.7476 13.8652 25.823 13.8652 25.957C13.8652 26.169 13.9753 26.2595 14.1973 26.2285C14.9903 26.1205 15.9978 26.1168 17.2188 26.2148C17.6408 26.2508 17.8674 26.1837 17.8984 26.0137C17.9294 25.8187 17.8184 25.7076 17.5664 25.6816C17.0724 25.6196 16.7506 25.5497 16.6016 25.4727C16.4106 25.3797 16.3145 25.2033 16.3145 24.9453V21.4688C16.3145 21.4028 16.3601 21.3672 16.4531 21.3672C17.2721 21.3672 17.8655 21.3896 18.2285 21.4336C18.5915 21.4776 18.8406 21.8228 18.9746 22.4668C19.0116 22.6368 19.1002 22.7123 19.2442 22.6973C19.4192 22.6873 19.505 22.6164 19.5 22.4824C19.448 21.3594 19.4947 20.4471 19.6387 19.7461C19.6647 19.6221 19.5891 19.5419 19.4141 19.5059C19.2081 19.4599 19.0887 19.5401 19.0527 19.7461C18.9957 20.1231 18.9379 20.3553 18.8789 20.4453C18.8199 20.5353 18.7032 20.5903 18.5332 20.6113C17.6622 20.6683 16.9981 20.7001 16.5391 20.7051C16.3901 20.7101 16.3164 20.6542 16.3164 20.5352V17.0332C16.3164 16.9142 16.3406 16.8368 16.3926 16.8008C16.4756 16.7438 16.6519 16.7168 16.9199 16.7168C18.0899 16.7168 18.8193 16.7392 19.1133 16.7852C19.3863 16.8212 19.6065 16.9285 19.7715 17.1035C19.9115 17.2525 20.0579 17.5146 20.2129 17.8906C20.2689 18.0296 20.3697 18.0996 20.5137 18.0996C20.6577 18.0996 20.7285 18.0194 20.7285 17.8594C20.7485 17.0454 20.8026 16.4661 20.8906 16.1211C20.8956 16.1001 20.8984 16.0807 20.9004 16.0547C20.9004 15.9777 20.7278 15.9478 20.3828 15.9688C19.3468 16.0308 18.1173 16.0625 16.6953 16.0625C15.4893 16.0625 14.7234 16.0364 14.3984 15.9844C14.1764 15.9484 14.0403 15.9381 13.9883 15.9531ZM3.79103 16.1367C3.92903 16.166 3.97667 16.2483 3.59767 16.2988L3.44532 16.291C3.42532 16.1315 3.65303 16.1075 3.79103 16.1367ZM3.63868 16.6699C3.91268 16.7899 4.47442 16.8455 4.56642 17.1465C4.00542 16.8545 4.67804 17.4983 4.20704 17.4863C3.95304 17.4893 3.48268 16.9439 3.63868 16.6699ZM3.49806 17.123C4.13306 17.606 3.1442 17.1228 2.7422 17.4258C2.1092 17.4898 3.43606 17.069 3.49806 17.123ZM5.17579 17.4121C5.25682 17.4345 5.25681 17.5111 5.12306 17.6719C5.61506 18.2599 5.23345 18.0615 4.89845 17.6445C5.19245 17.8475 4.96568 18.7241 4.51368 18.1211C4.19368 17.5251 3.99109 17.9279 4.33009 18.3359C3.99709 17.7089 3.03314 17.9768 2.32814 18.2168C1.87314 18.1668 3.51051 17.828 3.68751 17.748C3.96126 17.7533 4.9327 17.345 5.17579 17.4121ZM7.14845 18.0762C7.34956 18.0736 7.5479 18.0812 7.74415 18.0977C8.05915 18.4647 7.5057 19.086 6.9297 19.127C6.2297 19.389 5.5172 19.4531 4.8672 19.5391C4.0332 19.4341 3.43432 20.1843 2.57032 20.2793C2.80032 19.8533 2.38137 20.1323 1.94337 20.1113C2.16637 20.9713 0.400371 19.8828 1.44337 19.6758C0.661371 19.3978 0.650434 20.2195 0.732434 20.6875H0.679699C-0.0363007 19.7655 0.760027 19.3895 1.66603 19.2715C1.49403 19.6965 1.91342 19.8332 2.31642 19.9102C2.96942 19.7302 1.88687 19.6144 2.38087 19.4434C2.65187 19.3934 1.5169 19.1719 2.4629 19.0449C3.4329 18.8819 4.30559 18.5008 5.26759 18.3008C5.91859 18.1718 6.54512 18.084 7.14845 18.0762ZM6.93361 18.2949C6.84798 18.2683 6.64889 18.3218 6.54689 18.5898C6.62089 18.7588 6.65759 18.5404 6.64259 18.4824C6.99209 18.4289 7.01923 18.3215 6.93361 18.2949ZM4.91603 18.6543C4.63615 18.6414 4.17764 18.702 4.01564 18.8965C4.22164 18.9905 4.44815 18.6364 4.74415 18.8594C5.29665 18.7544 5.1959 18.6672 4.91603 18.6543ZM8.91212 18.7051C9.05201 18.6822 9.48517 18.844 9.33204 19.1152C9.22704 19.1452 9.24498 18.9869 9.16798 18.9609C8.85073 18.7993 8.82819 18.7188 8.91212 18.7051ZM3.48634 19.0801C3.4132 19.08 3.35467 19.1131 3.34767 19.2031L3.48829 19.332C4.05004 19.3778 3.70576 19.0803 3.48634 19.0801ZM3.17189 19.3379C3.06761 19.3227 2.97098 19.3804 2.91798 19.5762C3.01598 19.5522 3.17164 19.6087 3.26564 19.6797C3.85814 20.0847 3.48473 19.3836 3.17189 19.3379ZM6.98243 19.4336C7.50246 19.3318 7.35073 20.6779 7.18361 21.0918C7.49861 20.8768 7.43795 22.091 7.33595 22.543C7.50795 22.312 7.57873 22.9168 7.38673 23.3438C7.40273 23.2738 7.80282 23.2128 7.50782 23.7188C7.28282 23.2228 7.18509 24.7277 7.33009 24.0527C7.72709 23.4147 7.62315 24.0188 7.74415 24.3008C7.82215 24.8858 8.08312 25.4254 8.16212 25.9434C8.52912 26.3134 8.00582 26.0625 8.00782 26.5625C8.12682 26.4175 8.61239 26.7662 8.60939 27.2852C8.64939 26.4622 8.69667 27.0926 9.09767 27.3066C9.43267 27.8466 9.68361 28.3519 10.1836 28.7969C10.5736 29.2479 10.1591 28.931 10.3281 29.207C10.7421 29.941 11.7013 30.3666 12.5313 30.5586C12.8953 31.0326 13.4417 31.5041 14.1817 31.2891C13.5557 31.6751 15.9447 31.78 15.1367 31.998C14.7167 32.226 14.3182 31.8511 13.9082 31.8711C13.3382 31.6751 12.4372 31.0744 11.8262 31.4824C10.9812 32.0114 12.2592 30.8926 11.5742 31.3926C10.8802 32.2256 11.1028 30.8743 10.4258 31.2793C10.3868 31.1503 9.82401 31.1147 10.25 30.8867C9.86801 30.8627 10.1062 30.8382 10.2442 30.5332C10.0802 30.4992 9.16856 30.5314 8.81056 30.2324C8.38856 29.6834 8.88423 29.9063 9.32423 29.9863C8.61823 30.1103 9.56707 30.516 10.0391 30.291C9.82707 30.201 9.58445 29.7428 9.02345 29.3418C8.23945 28.8698 7.59426 28.6446 6.78126 28.2676C5.90126 27.7456 6.97822 28.0824 7.28322 28.3574C8.16121 28.7444 7.81565 27.8143 7.30665 27.5723C6.74865 27.5953 6.60522 26.9542 6.15822 26.9902C6.86421 27.1032 7.35437 26.8077 6.56837 26.0977C5.82137 25.2257 6.88032 26.7556 6.44532 26.5586C6.24732 26.2976 6.39568 25.9221 5.76368 25.7871C5.75668 26.0281 5.67707 26.4015 5.53907 25.8945C5.36307 25.9245 5.16159 26.1177 5.01759 25.5957C5.15359 25.0027 4.43037 24.8673 4.31837 24.4883C4.94337 24.8873 5.22621 24.5727 4.78322 24.1367C4.47822 23.6037 4.43564 24.0217 4.26564 24.0957C3.65264 24.7217 4.20951 23.0158 3.93751 23.5078C3.66351 23.4998 3.82118 23.8094 3.82618 24.1934C2.93018 23.9714 4.04375 24.6649 4.30275 25.0469C3.89375 24.6189 3.96311 25.3677 3.62111 25.0117C3.50511 24.6967 3.48893 24.1993 2.91993 24.1113C3.56693 23.8873 2.53511 23.4322 2.62111 23.4082C2.99111 23.0712 3.03839 22.608 3.48439 23.332C2.91939 23.286 3.46843 24.2647 3.60743 23.9727C3.58543 23.4717 3.83839 22.9458 2.98439 22.7148C2.73339 23.0528 2.30075 22.0527 2.80275 22.2637C2.73675 21.5997 3.58136 21.9911 3.52736 21.7031C3.96336 21.5121 2.99954 20.8954 3.51954 20.6484C3.91754 20.8904 4.94987 20.2676 4.25587 20.1816C4.68987 20.1776 5.038 20.3677 5.084 19.9277C5.435 20.0037 6.3845 20.3061 5.5215 19.8301C5.7975 19.6931 6.38081 19.5773 6.71681 19.5723C6.82043 19.4916 6.90814 19.4481 6.98243 19.4336ZM36.6211 19.9922C35.9571 19.9922 35.4263 20.1405 35.0293 20.4395C34.6013 20.7495 34.3887 21.1813 34.3887 21.7383C34.3887 22.1913 34.5258 22.5523 34.7988 22.8203C35.0508 23.0723 35.5527 23.3662 36.3047 23.7012C36.8247 23.9282 37.1755 24.1269 37.3555 24.2969C37.5205 24.4469 37.6035 24.6315 37.6035 24.8535C37.6035 25.3585 37.2407 25.6113 36.5137 25.6113C35.6527 25.6113 35.0286 25.2746 34.6426 24.5996C34.5546 24.4506 34.4482 24.3834 34.3242 24.3984C34.2002 24.4084 34.1387 24.5493 34.1387 24.8223C34.1387 25.4563 34.1602 25.8108 34.2012 25.8828C34.2682 25.9598 34.5107 26.0437 34.9277 26.1367C35.4117 26.2397 35.8969 26.293 36.3809 26.293C37.1079 26.293 37.6816 26.1306 38.1016 25.8086C38.5216 25.4866 38.7305 25.0538 38.7305 24.5078C38.7305 24.0138 38.5765 23.6193 38.2695 23.3223C38.0325 23.0963 37.5838 22.8396 36.9238 22.5566C36.2948 22.2836 35.8966 22.0821 35.7266 21.9531C35.5356 21.8031 35.4395 21.6046 35.4395 21.3516C35.4395 20.8986 35.7921 20.6719 36.4981 20.6719C37.1221 20.6719 37.6379 21.003 38.0449 21.668C38.1019 21.761 38.2148 21.7899 38.3848 21.7539C38.5438 21.7129 38.6166 21.6588 38.6016 21.5918C38.4726 21.0458 38.3867 20.6288 38.3457 20.3398C38.3297 20.2418 38.1366 20.1588 37.7656 20.0918C37.4206 20.0258 37.0381 19.9922 36.6211 19.9922ZM30.1875 20.0234C29.5795 20.0234 28.9471 20.198 28.2871 20.543C27.6581 20.873 27.3438 21.1612 27.3438 21.4082C27.3438 21.8042 27.5555 21.9824 27.9785 21.9414C28.3495 21.9104 28.634 21.6958 28.832 21.2988C29.03 20.9018 29.2409 20.7031 29.4629 20.7031C30.2409 20.7031 30.613 21.1277 30.582 21.9727L30.5684 22.4668C30.5634 22.6828 30.3852 22.8256 30.0352 22.8926C27.9942 23.2796 26.9746 23.9176 26.9746 24.8086C26.9746 25.2776 27.1285 25.6489 27.4375 25.9219C27.7205 26.1689 28.0731 26.293 28.4961 26.293C28.9441 26.293 29.391 26.1876 29.834 25.9766C30.277 25.7656 30.5224 25.6582 30.5684 25.6582C30.6304 25.6582 30.7376 25.7571 30.8926 25.9531C31.0466 26.1491 31.2248 26.2461 31.4258 26.2461C31.6628 26.2461 31.9791 26.137 32.3731 25.918C32.7671 25.699 32.9649 25.5357 32.9649 25.4277C32.9649 25.2267 32.8893 25.126 32.7383 25.125C32.7123 25.125 32.6209 25.1381 32.4609 25.1641C32.3009 25.1901 32.1937 25.2031 32.1367 25.2031C31.8487 25.2031 31.7059 25.0362 31.7109 24.7012L31.7422 21.5156C31.7522 20.5206 31.2335 20.0234 30.1875 20.0234ZM6.92579 20.2598C6.79431 20.2975 6.58873 20.9963 6.73048 21.2461C7.04248 21.7431 7.35467 20.0246 7.09767 20.6016C6.95967 21.3366 6.81859 21.0294 7.01759 20.4824C7.00559 20.3067 6.96962 20.2472 6.92579 20.2598ZM2.53517 20.9102C2.58487 20.9079 2.67215 20.9119 2.80665 20.9258C3.50065 20.9018 3.27782 21.3109 2.88282 21.3379C2.87382 21.3639 2.52098 21.2533 2.66798 21.1563C3.61998 21.277 2.18725 20.9258 2.53517 20.9102ZM4.28322 21.1523C4.34109 21.2821 4.43925 21.5263 4.36525 21.6348C4.56025 21.8278 5.22642 22.1712 4.69142 21.6992C5.03242 21.6312 4.64637 21.5233 4.44337 21.3613C4.20787 21.0078 4.22534 21.0226 4.28322 21.1523ZM2.01954 21.1699C2.17704 21.1638 2.33872 21.2446 2.03322 21.4316C1.70872 21.2691 1.86204 21.176 2.01954 21.1699ZM6.459 21.625C6.44889 21.6106 6.44359 21.6234 6.45509 21.6934C6.57284 21.9574 6.48932 21.6681 6.459 21.625ZM4.09376 21.8887C4.18576 22.0217 4.43479 21.9628 4.55079 22.0918C5.59879 22.5258 4.45676 21.8107 4.09376 21.8887ZM3.9297 21.9707C3.87814 21.9824 3.8874 22.0509 4.00197 22.209C4.07397 22.372 4.24759 22.3858 4.39259 22.4238C5.51709 22.9422 4.15311 21.9199 3.9297 21.9707ZM1.99415 22.0586C2.16503 22.0865 2.37054 22.1786 2.14454 22.2676L2.05275 22.2324C1.68725 22.0659 1.82328 22.0307 1.99415 22.0586ZM3.584 22.1953C3.53279 22.198 3.57671 22.2748 3.81447 22.4863L3.96876 22.6445C4.74876 22.8583 3.73761 22.1873 3.584 22.1953ZM3.47853 22.4043C3.43826 22.403 3.80007 22.79 3.63282 22.7832C3.05382 22.3602 3.2902 22.6594 3.6172 22.9844C3.9722 23.5114 4.26551 22.6705 3.68751 22.5645C3.55001 22.449 3.49195 22.4047 3.47853 22.4043ZM5.93556 22.9551C5.9282 22.9792 5.92692 23.0608 5.94142 23.2383C6.03817 23.326 5.95764 22.8827 5.93556 22.9551ZM6.44728 23C6.32254 23.0008 6.22887 23.8851 6.53712 24.0703C6.66412 24.4353 6.79972 24.2851 6.84572 23.8711C6.54772 23.8771 6.96837 23.2226 6.56837 23.3516C6.53337 23.0968 6.48886 22.9998 6.44728 23ZM7.30861 23.0195C7.28623 22.9699 7.2324 23.0784 7.2129 23.4414V23.5449C7.3209 23.2764 7.33098 23.0692 7.30861 23.0195ZM1.46876 23.0488C1.54779 23.0298 1.99826 23.9421 1.93751 24.1934C1.66151 24.0974 1.67489 23.6655 1.54689 23.4375C1.45814 23.1653 1.44242 23.0552 1.46876 23.0488ZM4.75978 23.0938C4.68678 23.2968 4.91475 23.9625 5.05275 24.1895C5.40475 24.7305 5.24682 23.8936 5.63282 24.4336C5.42082 23.9596 5.73251 24.2176 5.68751 24.0156C5.58951 23.8116 4.64028 22.7319 5.07228 23.5469C5.46328 24.5189 4.82678 23.4248 4.75978 23.0938ZM1.28321 23.252C1.38889 23.3201 1.67212 23.7809 1.72462 24.0371C2.16962 24.5731 1.99409 24.8684 2.45509 25.5254C1.86209 25.1514 1.75006 24.2586 1.37306 23.6816C1.21893 23.3115 1.21981 23.2111 1.28321 23.252ZM30.3711 23.373C30.422 23.3769 30.4622 23.3897 30.4942 23.4102C30.5592 23.4512 30.589 23.5351 30.584 23.6641L30.5684 24.9336C30.5684 25.0936 30.4089 25.2308 30.0899 25.3438C29.8169 25.4418 29.551 25.4902 29.293 25.4902C28.649 25.4902 28.3262 25.1946 28.3262 24.6016C28.3262 24.0136 28.9475 23.6087 30.1895 23.3867C30.259 23.3737 30.3202 23.3692 30.3711 23.373ZM4.55665 24.9316C4.7952 25.0065 4.65103 25.7867 5.00978 25.8926C5.81078 26.9376 4.45497 25.9233 4.00197 25.8223C4.05997 25.8193 3.59984 25.6915 3.79884 25.6465C3.65384 25.4975 3.32932 24.9564 4.07032 25.3184C4.65932 25.6134 4.70875 25.4143 4.42775 24.9453C4.48 24.9232 4.52257 24.9209 4.55665 24.9316ZM1.85353 25.084C1.87336 24.9842 2.28123 25.6403 2.35548 25.9141C2.57948 26.6271 3.28057 27.0378 3.35157 27.5098C4.12857 27.9578 3.72982 28.6885 4.38282 28.8945C4.67282 28.7475 4.70137 29.7745 5.31837 29.5605C4.97537 29.7215 5.46278 29.9119 5.63478 30.2109C6.02378 30.1579 6.87636 31.0679 6.02736 30.7539C5.66936 30.6779 5.42489 30.3055 5.17189 30.0625C4.42089 29.5855 3.9335 28.7874 3.5215 28.0234C2.9905 27.2204 2.35129 26.4175 1.98829 25.4785C1.88179 25.2348 1.84692 25.1172 1.85353 25.084ZM7.82032 25.6875C7.78074 25.7078 7.77867 25.8264 7.89454 26.0859L7.9629 26.1973C8.05728 25.8904 7.8863 25.6537 7.82032 25.6875ZM5.11915 26.6055C5.34015 26.6536 5.67265 26.7723 5.80665 26.7988C5.84365 26.9578 5.04915 26.9331 5.74415 27.2441C5.33915 27.2331 5.21693 27.2026 5.79493 27.5566C5.56793 27.7386 6.25259 27.8833 6.01759 28.1563C6.71459 28.7003 5.89176 28.2943 5.59376 28.0723C5.41776 27.9503 4.70051 27.7078 4.81251 27.5488C5.65851 27.9928 5.02731 27.5294 4.65431 27.2344C5.33631 27.4014 4.10782 26.7293 4.75782 26.9063C4.95082 26.9533 4.46557 26.508 5.10157 26.832C4.78857 26.579 4.89815 26.5573 5.11915 26.6055ZM9.36134 28.3105C9.2742 28.2798 9.36045 28.6171 9.5547 28.8203C9.9687 29.3133 9.65378 28.5404 9.50978 28.4824C9.43978 28.3722 9.39039 28.3208 9.36134 28.3105ZM5.709 28.7949C5.9395 28.7974 6.31634 28.9014 6.54884 29.0254C7.56884 29.2524 6.33184 29.5259 5.92384 29.2129L5.75197 29.1758C5.39546 28.8928 5.4785 28.7924 5.709 28.7949ZM6.92775 28.9023C7.01258 28.8842 7.39814 29.0428 7.56251 29.1953C8.05151 29.2613 8.05368 29.4847 7.51368 29.3457C7.41768 29.2867 7.2629 29.29 7.2129 29.166C6.93465 28.9883 6.87685 28.9132 6.92775 28.9023ZM7.57814 28.9102C7.73239 28.9075 7.98496 28.9514 8.06446 29.0684C9.13546 29.2404 7.9967 29.3152 7.6797 29.0332C7.3682 28.9617 7.42389 28.9128 7.57814 28.9102ZM7.57814 29.5137C7.69392 29.4881 8.45001 29.8002 7.90626 29.7305L7.74806 29.6797C7.57231 29.5694 7.53954 29.5222 7.57814 29.5137ZM11.1817 29.6953C11.2154 29.7072 11.2497 29.7381 11.2734 29.7988C10.9922 29.7943 11.0804 29.6597 11.1817 29.6953ZM7.58204 29.9883C7.80175 30.0095 8.64695 30.4713 7.89845 30.2598L7.78322 30.2148L7.65236 30.1543C7.50411 30.0225 7.50881 29.9812 7.58204 29.9883ZM9.4004 31.2051C9.50193 31.1889 10.3357 31.2646 9.62696 31.2578C9.41371 31.2253 9.36656 31.2105 9.4004 31.2051ZM7.18361 31.3281C7.24364 31.3415 7.33878 31.3709 7.47853 31.4219C8.37353 31.9749 9.40534 32.2674 10.3613 32.6934C11.2013 32.8034 12.0871 33.0257 12.9141 32.8477C13.6041 33.1927 14.3197 32.7583 15.0117 33.0703C13.4827 33.3683 11.9097 33.0421 10.3867 32.8301C9.42673 32.7091 8.56937 32.3106 7.69337 31.9316C7.56637 31.8716 7.44623 31.7966 7.32423 31.7266C6.72223 31.3926 6.79682 31.3243 7.38282 31.6523C7.58982 31.8173 9.05839 32.4185 8.35939 32.0215C8.09514 31.9559 6.76339 31.2342 7.18361 31.3281ZM12.75 31.5938C12.8185 31.6378 12.8209 31.7814 12.8184 31.9629C12.3584 32.4709 12.6327 31.7553 12.3477 32.0313C12.0847 32.2413 12.1471 31.9062 12.2891 31.8262C12.5466 31.6057 12.6815 31.5498 12.75 31.5938ZM16.584 31.7559C16.9946 31.7912 17.4643 31.8861 17.7363 31.8926C17.5713 32.2396 16.5515 31.9207 16.1035 32.0117L15.9102 32L15.791 31.9805C15.8225 31.7445 16.1734 31.7205 16.584 31.7559ZM20.1152 31.8672C21.1772 31.8662 20.1853 32.0215 19.6973 32.0195C19.1433 31.8895 19.9482 31.8932 20.1152 31.8672ZM13.7188 32.0059C13.8038 31.9962 13.8328 32.0633 13.5918 32.2188L13.5039 32.2461C13.4919 32.1001 13.6338 32.0155 13.7188 32.0059ZM13.3145 32.0684C13.3301 32.0925 13.2952 32.1617 13.1602 32.3047C12.7672 32.3302 13.2676 31.9959 13.3145 32.0684ZM9.48243 32.1777C9.57834 32.1536 10.6114 32.4516 10.7442 32.4238C11.7972 32.8148 10.1156 32.551 9.76759 32.332C9.52334 32.2288 9.45046 32.1858 9.48243 32.1777ZM14.5703 32.2285C14.5726 32.2548 14.5178 32.3162 14.3633 32.4277L14.2344 32.5117C14.0514 32.385 14.5635 32.1498 14.5703 32.2285Z" fill="white"/>
</g>
<defs>
<clipPath id="clip0_6_444">
<rect width="50" height="50" fill="white"/>
</clipPath>
</defs>
</svg>
