<svg width="50" height="50" viewBox="0 0 50 50" fill="none" xmlns="http://www.w3.org/2000/svg">
<path d="M43.9583 23.0208L26.9791 6.04165C26.4583 5.52081 25.7291 5.20831 25 5.20831C24.2708 5.20831 23.5416 5.52081 23.0208 6.04165L19.375 9.68748L23.6458 13.9583C24.0625 13.75 24.4791 13.6458 25 13.6458C26.7708 13.6458 28.125 15 28.125 16.7708C28.125 17.2916 28.0208 17.7083 27.8125 18.125L31.9791 22.2916C32.3958 22.0833 32.8125 21.9791 33.3333 21.9791C35.1041 21.9791 36.4583 23.3333 36.4583 25.1041C36.4583 26.875 35.1041 28.2291 33.3333 28.2291C31.5625 28.2291 30.2083 26.875 30.2083 25.1041C30.2083 24.5833 30.3125 24.1666 30.5208 23.75L26.3541 19.5833C26.25 19.5833 26.1458 19.6875 26.0416 19.6875V30.5208C27.2916 30.9375 28.125 32.0833 28.125 33.4375C28.125 35.2083 26.7708 36.5625 25 36.5625C23.2291 36.5625 21.875 35.2083 21.875 33.4375C21.875 32.0833 22.7083 30.9375 23.9583 30.5208V19.5833C22.7083 19.1666 21.875 18.0208 21.875 16.6666C21.875 16.1458 21.9791 15.7291 22.1875 15.3125L17.9166 11.0416L6.04165 23.0208C5.52081 23.5416 5.20831 24.2708 5.20831 25C5.20831 25.7291 5.52081 26.4583 6.04165 26.9791L23.0208 43.9583C23.5416 44.4791 24.2708 44.7916 25 44.7916C25.7291 44.7916 26.4583 44.4791 26.9791 43.9583L43.9583 26.9791C44.4791 26.4583 44.7916 25.7291 44.7916 25C44.7916 24.2708 44.4791 23.5416 43.9583 23.0208Z" fill="#F4511E"/>
</svg>
