<svg width="50" height="50" viewBox="0 0 50 50" fill="none" xmlns="http://www.w3.org/2000/svg">
<rect width="50" height="50" rx="25" fill="#E8E8E8"/>
<path d="M19.7646 32.8125C19.7646 33.675 19.0656 34.375 18.2021 34.375C17.3385 34.375 16.6396 33.675 16.6396 32.8125V18.2292C16.6396 17.549 17.0802 16.9469 17.7281 16.7396C18.3792 16.5333 19.0844 16.7708 19.4771 17.326L36.9531 42.0177C42.3094 38.2385 45.8333 32.0156 45.8333 25C45.8333 13.5417 36.4583 4.16666 25 4.16666C13.5417 4.16666 4.16666 13.5417 4.16666 25C4.16666 36.4583 13.5417 45.8333 25 45.8333C28.325 45.8333 31.4646 45.024 34.2604 43.6229L19.7646 23.1417V32.8125ZM30.1812 17.1875C30.1812 16.325 30.8802 15.625 31.7437 15.625C32.6073 15.625 33.3062 16.325 33.3062 17.1875V31.6042L30.1812 27.201V17.1875Z" fill="#212121"/>
</svg>
