<svg width="50" height="50" viewBox="0 0 50 50" fill="none" xmlns="http://www.w3.org/2000/svg">
<path d="M25.049 5.20834C23.4292 5.21354 22.3063 5.35625 20.949 5.59063C16.9407 6.28854 16.2104 7.75417 16.2104 10.4552V14.5833H25.5854V16.6667H15.8542H11.3229C8.57711 16.6667 6.17399 17.9604 5.41253 21.0615C4.55211 24.6208 4.51357 26.85 5.41253 30.5667C6.09482 33.3385 7.59795 35.4167 10.3448 35.4167H14.1282V30.1C14.1282 27.0104 16.9261 23.9583 20.1323 23.9583H27.6698C30.2979 23.9583 32.8782 22.0188 32.8782 19.399V10.4552C32.8782 7.91459 31.0459 6.01459 28.4844 5.58854C28.5479 5.58229 26.6552 5.20209 25.049 5.20834ZM19.8573 9.375C20.7125 9.375 21.4198 10.0802 21.4198 10.9396C21.4198 11.8073 20.7125 12.5 19.8573 12.5C18.9854 12.5 18.2948 11.8083 18.2948 10.9396C18.2948 10.0833 18.9854 9.375 19.8573 9.375Z" fill="#0277BD"/>
<path d="M24.0396 44.7917C25.6594 44.7865 26.7823 44.6438 28.1396 44.4094C32.1479 43.7115 32.8782 42.2458 32.8782 39.5448V35.4167H23.5032V33.3333H33.2354H37.7667C40.5125 33.3333 42.9157 32.0396 43.6771 28.9385C44.5375 25.3792 44.5761 23.15 43.6771 19.4333C42.9938 16.6615 41.4907 14.5833 38.7438 14.5833H34.9604V19.9C34.9604 22.9896 32.1625 26.0417 28.9563 26.0417H21.4188C18.7907 26.0417 16.2104 27.9813 16.2104 30.601V39.5448C16.2104 42.0854 18.0427 43.9854 20.6042 44.4115C20.5407 44.4177 22.4334 44.7979 24.0396 44.7917ZM29.2323 40.625C28.3771 40.625 27.6698 39.9198 27.6698 39.0604C27.6698 38.1927 28.3771 37.5 29.2323 37.5C30.1042 37.5 30.7948 38.1917 30.7948 39.0604C30.7948 39.9167 30.1032 40.625 29.2323 40.625Z" fill="#FFC107"/>
</svg>
