<svg width="50" height="50" viewBox="0 0 50 50" fill="none" xmlns="http://www.w3.org/2000/svg">
<g clip-path="url(#clip0_6_407)">
<path d="M25 10.0042C18.3333 10.0042 14.1667 13.3365 12.5 20.001C15 16.6687 17.9167 15.4198 21.25 16.2521C23.1521 16.7271 24.5115 18.1073 26.0167 19.6344C28.4667 22.1208 31.3031 25 37.5 25C44.1667 25 48.3333 21.6677 50 15.0021C47.5 18.3344 44.5833 19.5844 41.25 18.7521C39.349 18.2771 37.9896 16.8969 36.4844 15.3698C34.0333 12.8823 31.1958 10.0042 25 10.0042ZM12.5 25C5.83333 25 1.66667 28.3323 0 34.9979C2.5 31.6656 5.41667 30.4156 8.75 31.249C10.651 31.725 12.0104 33.1042 13.5156 34.6302C15.9667 37.1177 18.8042 39.9969 25 39.9969C31.6667 39.9969 35.8333 36.6646 37.5 29.999C35 33.3312 32.0833 34.5812 28.75 33.7479C26.8479 33.2729 25.4885 31.8927 23.9833 30.3667C21.5333 27.8792 18.6969 25 12.5 25Z" fill="#00ACC1"/>
</g>
<defs>
<clipPath id="clip0_6_407">
<rect width="50" height="50" fill="white"/>
</clipPath>
</defs>
</svg>
